solid OpenSCAD_Model
  facet normal 0.0980168 0.995185 -0
    outer loop
      vertex 3.40918 33.8891 0
      vertex -3.8802e-15 34.2249 15
      vertex 3.40918 33.8891 15
    endloop
  endfacet
  facet normal 0.0980168 0.995185 0
    outer loop
      vertex -3.8802e-15 34.2249 15
      vertex 3.40918 33.8891 0
      vertex -3.8802e-15 34.2249 0
    endloop
  endfacet
  facet normal 1.89765e-08 1.92671e-07 1
    outer loop
      vertex -2.78114e-15 29.2751 15
      vertex 2.44353 29.0345 15
      vertex -3.8802e-15 34.2249 15
    endloop
  endfacet
  facet normal 1.89764e-08 1.92671e-07 1
    outer loop
      vertex 2.44353 29.0345 15
      vertex 3.40918 33.8891 15
      vertex -3.8802e-15 34.2249 15
    endloop
  endfacet
  facet normal -0.0980174 -0.995185 0
    outer loop
      vertex -2.78114e-15 29.2751 0
      vertex 2.44353 29.0345 15
      vertex -2.78114e-15 29.2751 15
    endloop
  endfacet
  facet normal -0.0980174 -0.995185 -0
    outer loop
      vertex 2.44353 29.0345 15
      vertex -2.78114e-15 29.2751 0
      vertex 2.44353 29.0345 0
    endloop
  endfacet
  facet normal 0.290285 0.95694 -0
    outer loop
      vertex 6.68734 32.8947 0
      vertex 3.40918 33.8891 15
      vertex 6.68734 32.8947 15
    endloop
  endfacet
  facet normal 0.290285 0.95694 0
    outer loop
      vertex 3.40918 33.8891 15
      vertex 6.68734 32.8947 0
      vertex 3.40918 33.8891 0
    endloop
  endfacet
  facet normal 5.62e-08 1.85267e-07 1
    outer loop
      vertex 4.79316 28.3217 15
      vertex 3.40918 33.8891 15
      vertex 2.44353 29.0345 15
    endloop
  endfacet
  facet normal 5.62003e-08 1.85267e-07 1
    outer loop
      vertex 4.79316 28.3217 15
      vertex 6.68734 32.8947 15
      vertex 3.40918 33.8891 15
    endloop
  endfacet
  facet normal -0.290284 -0.956941 0
    outer loop
      vertex 2.44353 29.0345 0
      vertex 4.79316 28.3217 15
      vertex 2.44353 29.0345 15
    endloop
  endfacet
  facet normal -0.290284 -0.956941 -0
    outer loop
      vertex 4.79316 28.3217 15
      vertex 2.44353 29.0345 0
      vertex 4.79316 28.3217 0
    endloop
  endfacet
  facet normal 0.471396 0.881922 -0
    outer loop
      vertex 9.70852 31.2798 0
      vertex 6.68734 32.8947 15
      vertex 9.70852 31.2798 15
    endloop
  endfacet
  facet normal 0.471396 0.881922 0
    outer loop
      vertex 6.68734 32.8947 15
      vertex 9.70852 31.2798 0
      vertex 6.68734 32.8947 0
    endloop
  endfacet
  facet normal 9.12642e-08 1.70743e-07 1
    outer loop
      vertex 6.95859 27.1643 15
      vertex 6.68734 32.8947 15
      vertex 4.79316 28.3217 15
    endloop
  endfacet
  facet normal 9.1264e-08 1.70743e-07 1
    outer loop
      vertex 6.95859 27.1643 15
      vertex 9.70852 31.2798 15
      vertex 6.68734 32.8947 15
    endloop
  endfacet
  facet normal -0.471397 -0.881921 0
    outer loop
      vertex 4.79316 28.3217 0
      vertex 6.95859 27.1643 15
      vertex 4.79316 28.3217 15
    endloop
  endfacet
  facet normal -0.471397 -0.881921 -0
    outer loop
      vertex 6.95859 27.1643 15
      vertex 4.79316 28.3217 0
      vertex 6.95859 27.1643 0
    endloop
  endfacet
  facet normal 0.634393 0.77301 -0
    outer loop
      vertex 12.3566 29.1066 0
      vertex 9.70852 31.2798 15
      vertex 12.3566 29.1066 15
    endloop
  endfacet
  facet normal 0.634393 0.77301 0
    outer loop
      vertex 9.70852 31.2798 15
      vertex 12.3566 29.1066 0
      vertex 9.70852 31.2798 0
    endloop
  endfacet
  facet normal 1.22821e-07 1.49658e-07 1
    outer loop
      vertex 8.8566 25.6066 15
      vertex 9.70852 31.2798 15
      vertex 6.95859 27.1643 15
    endloop
  endfacet
  facet normal 1.22821e-07 1.49658e-07 1
    outer loop
      vertex 12.3566 29.1066 15
      vertex 9.70852 31.2798 15
      vertex 8.8566 25.6066 15
    endloop
  endfacet
  facet normal -0.634393 -0.773011 0
    outer loop
      vertex 6.95859 27.1643 0
      vertex 8.8566 25.6066 15
      vertex 6.95859 27.1643 15
    endloop
  endfacet
  facet normal -0.634393 -0.773011 -0
    outer loop
      vertex 8.8566 25.6066 15
      vertex 6.95859 27.1643 0
      vertex 8.8566 25.6066 0
    endloop
  endfacet
  facet normal 0.773011 0.634393 0
    outer loop
      vertex 14.5298 26.4585 15
      vertex 12.3566 29.1066 0
      vertex 12.3566 29.1066 15
    endloop
  endfacet
  facet normal 0.773011 0.634393 0
    outer loop
      vertex 12.3566 29.1066 0
      vertex 14.5298 26.4585 15
      vertex 14.5298 26.4585 0
    endloop
  endfacet
  facet normal 1.49658e-07 1.22821e-07 1
    outer loop
      vertex 10.4143 23.7086 15
      vertex 12.3566 29.1066 15
      vertex 8.8566 25.6066 15
    endloop
  endfacet
  facet normal 1.49658e-07 1.22821e-07 1
    outer loop
      vertex 14.5298 26.4585 15
      vertex 12.3566 29.1066 15
      vertex 10.4143 23.7086 15
    endloop
  endfacet
  facet normal -0.77301 -0.634393 0
    outer loop
      vertex 10.4143 23.7086 0
      vertex 8.8566 25.6066 15
      vertex 8.8566 25.6066 0
    endloop
  endfacet
  facet normal -0.77301 -0.634393 0
    outer loop
      vertex 8.8566 25.6066 15
      vertex 10.4143 23.7086 0
      vertex 10.4143 23.7086 15
    endloop
  endfacet
  facet normal 0.881921 0.471397 0
    outer loop
      vertex 16.1447 23.4373 15
      vertex 14.5298 26.4585 0
      vertex 14.5298 26.4585 15
    endloop
  endfacet
  facet normal 0.881921 0.471397 0
    outer loop
      vertex 14.5298 26.4585 0
      vertex 16.1447 23.4373 15
      vertex 16.1447 23.4373 0
    endloop
  endfacet
  facet normal 1.70743e-07 9.12641e-08 1
    outer loop
      vertex 11.5717 21.5432 15
      vertex 14.5298 26.4585 15
      vertex 10.4143 23.7086 15
    endloop
  endfacet
  facet normal 1.70743e-07 9.12641e-08 1
    outer loop
      vertex 16.1447 23.4373 15
      vertex 14.5298 26.4585 15
      vertex 11.5717 21.5432 15
    endloop
  endfacet
  facet normal -0.881921 -0.471397 0
    outer loop
      vertex 11.5717 21.5432 0
      vertex 10.4143 23.7086 15
      vertex 10.4143 23.7086 0
    endloop
  endfacet
  facet normal -0.881921 -0.471397 0
    outer loop
      vertex 10.4143 23.7086 15
      vertex 11.5717 21.5432 0
      vertex 11.5717 21.5432 15
    endloop
  endfacet
  facet normal 0.95694 0.290284 0
    outer loop
      vertex 17.1391 20.1592 15
      vertex 16.1447 23.4373 0
      vertex 16.1447 23.4373 15
    endloop
  endfacet
  facet normal 0.95694 0.290284 0
    outer loop
      vertex 16.1447 23.4373 0
      vertex 17.1391 20.1592 15
      vertex 17.1391 20.1592 0
    endloop
  endfacet
  facet normal 1.85267e-07 5.62001e-08 1
    outer loop
      vertex 12.2845 19.1935 15
      vertex 16.1447 23.4373 15
      vertex 11.5717 21.5432 15
    endloop
  endfacet
  facet normal 1.85267e-07 5.62001e-08 1
    outer loop
      vertex 17.1391 20.1592 15
      vertex 16.1447 23.4373 15
      vertex 12.2845 19.1935 15
    endloop
  endfacet
  facet normal -0.95694 -0.290285 0
    outer loop
      vertex 12.2845 19.1935 0
      vertex 11.5717 21.5432 15
      vertex 11.5717 21.5432 0
    endloop
  endfacet
  facet normal -0.95694 -0.290285 0
    outer loop
      vertex 11.5717 21.5432 15
      vertex 12.2845 19.1935 0
      vertex 12.2845 19.1935 15
    endloop
  endfacet
  facet normal 0.995185 0.0980173 0
    outer loop
      vertex 17.4749 16.75 15
      vertex 17.1391 20.1592 0
      vertex 17.1391 20.1592 15
    endloop
  endfacet
  facet normal 0.995185 0.0980173 0
    outer loop
      vertex 17.1391 20.1592 0
      vertex 17.4749 16.75 15
      vertex 17.4749 16.75 0
    endloop
  endfacet
  facet normal 1.92671e-07 1.89764e-08 1
    outer loop
      vertex 12.5251 16.75 15
      vertex 17.1391 20.1592 15
      vertex 12.2845 19.1935 15
    endloop
  endfacet
  facet normal 1.92671e-07 1.89765e-08 1
    outer loop
      vertex 17.4749 16.75 15
      vertex 17.1391 20.1592 15
      vertex 12.5251 16.75 15
    endloop
  endfacet
  facet normal -0.995185 -0.098017 0
    outer loop
      vertex 12.5251 16.75 0
      vertex 12.2845 19.1935 15
      vertex 12.2845 19.1935 0
    endloop
  endfacet
  facet normal -0.995185 -0.098017 0
    outer loop
      vertex 12.2845 19.1935 15
      vertex 12.5251 16.75 0
      vertex 12.5251 16.75 15
    endloop
  endfacet
  facet normal 0.995185 -0.0980168 0
    outer loop
      vertex 17.1391 13.3408 15
      vertex 17.4749 16.75 0
      vertex 17.4749 16.75 15
    endloop
  endfacet
  facet normal 0.995185 -0.0980168 0
    outer loop
      vertex 17.4749 16.75 0
      vertex 17.1391 13.3408 15
      vertex 17.1391 13.3408 0
    endloop
  endfacet
  facet normal 1.92671e-07 -1.89764e-08 1
    outer loop
      vertex 17.4749 16.75 15
      vertex 12.5251 16.75 15
      vertex 12.2845 14.3065 15
    endloop
  endfacet
  facet normal 1.92671e-07 -1.89764e-08 1
    outer loop
      vertex 17.1391 13.3408 15
      vertex 17.4749 16.75 15
      vertex 12.2845 14.3065 15
    endloop
  endfacet
  facet normal -0.995185 0.098017 0
    outer loop
      vertex 12.2845 14.3065 0
      vertex 12.5251 16.75 15
      vertex 12.5251 16.75 0
    endloop
  endfacet
  facet normal -0.995185 0.098017 0
    outer loop
      vertex 12.5251 16.75 15
      vertex 12.2845 14.3065 0
      vertex 12.2845 14.3065 15
    endloop
  endfacet
  facet normal 0.95694 -0.290285 0
    outer loop
      vertex 16.1447 10.0627 15
      vertex 17.1391 13.3408 0
      vertex 17.1391 13.3408 15
    endloop
  endfacet
  facet normal 0.95694 -0.290285 0
    outer loop
      vertex 17.1391 13.3408 0
      vertex 16.1447 10.0627 15
      vertex 16.1447 10.0627 0
    endloop
  endfacet
  facet normal 1.85267e-07 -5.62001e-08 1
    outer loop
      vertex 17.1391 13.3408 15
      vertex 12.2845 14.3065 15
      vertex 11.5717 11.9568 15
    endloop
  endfacet
  facet normal 1.85267e-07 -5.62002e-08 1
    outer loop
      vertex 16.1447 10.0627 15
      vertex 17.1391 13.3408 15
      vertex 11.5717 11.9568 15
    endloop
  endfacet
  facet normal -0.95694 0.290285 0
    outer loop
      vertex 11.5717 11.9568 0
      vertex 12.2845 14.3065 15
      vertex 12.2845 14.3065 0
    endloop
  endfacet
  facet normal -0.95694 0.290285 0
    outer loop
      vertex 12.2845 14.3065 15
      vertex 11.5717 11.9568 0
      vertex 11.5717 11.9568 15
    endloop
  endfacet
  facet normal 0.881921 -0.471397 0
    outer loop
      vertex 14.5298 7.04148 15
      vertex 16.1447 10.0627 0
      vertex 16.1447 10.0627 15
    endloop
  endfacet
  facet normal 0.881921 -0.471397 0
    outer loop
      vertex 16.1447 10.0627 0
      vertex 14.5298 7.04148 15
      vertex 14.5298 7.04148 0
    endloop
  endfacet
  facet normal 1.70743e-07 -9.12641e-08 1
    outer loop
      vertex 16.1447 10.0627 15
      vertex 11.5717 11.9568 15
      vertex 10.4143 9.79141 15
    endloop
  endfacet
  facet normal 1.70743e-07 -9.12641e-08 1
    outer loop
      vertex 14.5298 7.04148 15
      vertex 16.1447 10.0627 15
      vertex 10.4143 9.79141 15
    endloop
  endfacet
  facet normal -0.881921 0.471397 0
    outer loop
      vertex 10.4143 9.79141 0
      vertex 11.5717 11.9568 15
      vertex 11.5717 11.9568 0
    endloop
  endfacet
  facet normal -0.881921 0.471397 0
    outer loop
      vertex 11.5717 11.9568 15
      vertex 10.4143 9.79141 0
      vertex 10.4143 9.79141 15
    endloop
  endfacet
  facet normal 0.773011 -0.634393 0
    outer loop
      vertex 12.3566 4.3934 15
      vertex 14.5298 7.04148 0
      vertex 14.5298 7.04148 15
    endloop
  endfacet
  facet normal 0.773011 -0.634393 0
    outer loop
      vertex 14.5298 7.04148 0
      vertex 12.3566 4.3934 15
      vertex 12.3566 4.3934 0
    endloop
  endfacet
  facet normal 1.49658e-07 -1.22821e-07 1
    outer loop
      vertex 14.5298 7.04148 15
      vertex 10.4143 9.79141 15
      vertex 8.8566 7.8934 15
    endloop
  endfacet
  facet normal 1.49658e-07 -1.22821e-07 1
    outer loop
      vertex 12.3566 4.3934 15
      vertex 14.5298 7.04148 15
      vertex 8.8566 7.8934 15
    endloop
  endfacet
  facet normal -0.773011 0.634393 0
    outer loop
      vertex 8.8566 7.8934 0
      vertex 10.4143 9.79141 15
      vertex 10.4143 9.79141 0
    endloop
  endfacet
  facet normal -0.773011 0.634393 0
    outer loop
      vertex 10.4143 9.79141 15
      vertex 8.8566 7.8934 0
      vertex 8.8566 7.8934 15
    endloop
  endfacet
  facet normal 0.634393 -0.773011 0
    outer loop
      vertex 9.70852 2.22017 0
      vertex 12.3566 4.3934 15
      vertex 9.70852 2.22017 15
    endloop
  endfacet
  facet normal 0.634393 -0.773011 0
    outer loop
      vertex 12.3566 4.3934 15
      vertex 9.70852 2.22017 0
      vertex 12.3566 4.3934 0
    endloop
  endfacet
  facet normal 1.22821e-07 -1.49658e-07 1
    outer loop
      vertex 12.3566 4.3934 15
      vertex 8.8566 7.8934 15
      vertex 6.95859 6.33574 15
    endloop
  endfacet
  facet normal 1.22821e-07 -1.49658e-07 1
    outer loop
      vertex 9.70852 2.22017 15
      vertex 12.3566 4.3934 15
      vertex 6.95859 6.33574 15
    endloop
  endfacet
  facet normal -0.634393 0.773011 0
    outer loop
      vertex 8.8566 7.8934 0
      vertex 6.95859 6.33574 15
      vertex 8.8566 7.8934 15
    endloop
  endfacet
  facet normal -0.634393 0.773011 0
    outer loop
      vertex 6.95859 6.33574 15
      vertex 8.8566 7.8934 0
      vertex 6.95859 6.33574 0
    endloop
  endfacet
  facet normal 0.471397 -0.881921 0
    outer loop
      vertex 6.68734 0.605322 0
      vertex 9.70852 2.22017 15
      vertex 6.68734 0.605322 15
    endloop
  endfacet
  facet normal 0.471397 -0.881921 0
    outer loop
      vertex 9.70852 2.22017 15
      vertex 6.68734 0.605322 0
      vertex 9.70852 2.22017 0
    endloop
  endfacet
  facet normal 9.12641e-08 -1.70743e-07 1
    outer loop
      vertex 9.70852 2.22017 15
      vertex 6.95859 6.33574 15
      vertex 4.79316 5.17829 15
    endloop
  endfacet
  facet normal 9.12641e-08 -1.70743e-07 1
    outer loop
      vertex 6.68734 0.605322 15
      vertex 9.70852 2.22017 15
      vertex 4.79316 5.17829 15
    endloop
  endfacet
  facet normal -0.471397 0.881921 0
    outer loop
      vertex 6.95859 6.33574 0
      vertex 4.79316 5.17829 15
      vertex 6.95859 6.33574 15
    endloop
  endfacet
  facet normal -0.471397 0.881921 0
    outer loop
      vertex 4.79316 5.17829 15
      vertex 6.95859 6.33574 0
      vertex 4.79316 5.17829 0
    endloop
  endfacet
  facet normal 0.290284 -0.95694 0
    outer loop
      vertex 3.40918 -0.389098 0
      vertex 6.68734 0.605322 15
      vertex 3.40918 -0.389098 15
    endloop
  endfacet
  facet normal 0.290284 -0.95694 0
    outer loop
      vertex 6.68734 0.605322 15
      vertex 3.40918 -0.389098 0
      vertex 6.68734 0.605322 0
    endloop
  endfacet
  facet normal 5.62001e-08 -1.85267e-07 1
    outer loop
      vertex 6.68734 0.605322 15
      vertex 4.79316 5.17829 15
      vertex 2.44353 4.46554 15
    endloop
  endfacet
  facet normal 5.62001e-08 -1.85267e-07 1
    outer loop
      vertex 3.40918 -0.389098 15
      vertex 6.68734 0.605322 15
      vertex 2.44353 4.46554 15
    endloop
  endfacet
  facet normal -0.290285 0.95694 0
    outer loop
      vertex 4.79316 5.17829 0
      vertex 2.44353 4.46554 15
      vertex 4.79316 5.17829 15
    endloop
  endfacet
  facet normal -0.290285 0.95694 0
    outer loop
      vertex 2.44353 4.46554 15
      vertex 4.79316 5.17829 0
      vertex 2.44353 4.46554 0
    endloop
  endfacet
  facet normal 0.0980173 -0.995185 0
    outer loop
      vertex 0.00999928 -0.723889 0
      vertex 3.40918 -0.389098 15
      vertex 0.00999928 -0.723889 15
    endloop
  endfacet
  facet normal 0.0980173 -0.995185 0
    outer loop
      vertex 3.40918 -0.389098 15
      vertex 0.00999928 -0.723889 0
      vertex 3.40918 -0.389098 0
    endloop
  endfacet
  facet normal 1.89764e-08 -1.92671e-07 1
    outer loop
      vertex 3.40918 -0.389098 15
      vertex 2.44353 4.46554 15
      vertex 2.78114e-15 4.22487 15
    endloop
  endfacet
  facet normal 1.89765e-08 -1.92671e-07 1
    outer loop
      vertex 2.78114e-15 4.22487 15
      vertex 0.00999928 -0.723889 15
      vertex 3.40918 -0.389098 15
    endloop
  endfacet
  facet normal -2.8721e-08 -1.92768e-07 1
    outer loop
      vertex 0.00999928 -0.723889 15
      vertex 2.78114e-15 4.22487 15
      vertex 3.87965e-15 -0.722399 15
    endloop
  endfacet
  facet normal -0.098017 0.995185 0
    outer loop
      vertex 2.44353 4.46554 0
      vertex 2.78114e-15 4.22487 15
      vertex 2.44353 4.46554 15
    endloop
  endfacet
  facet normal -0.098017 0.995185 0
    outer loop
      vertex 2.78114e-15 4.22487 15
      vertex 2.44353 4.46554 0
      vertex 2.78114e-15 4.22487 0
    endloop
  endfacet
  facet normal -0.995185 0.0980168 0
    outer loop
      vertex -17.4749 16.75 0
      vertex -17.1391 20.1592 15
      vertex -17.1391 20.1592 0
    endloop
  endfacet
  facet normal -0.995185 0.0980168 0
    outer loop
      vertex -17.1391 20.1592 15
      vertex -17.4749 16.75 0
      vertex -17.4749 16.75 15
    endloop
  endfacet
  facet normal -1.92671e-07 1.89765e-08 1
    outer loop
      vertex -12.5251 16.75 15
      vertex -12.2845 19.1935 15
      vertex -17.4749 16.75 15
    endloop
  endfacet
  facet normal -1.92671e-07 1.89764e-08 1
    outer loop
      vertex -12.2845 19.1935 15
      vertex -17.1391 20.1592 15
      vertex -17.4749 16.75 15
    endloop
  endfacet
  facet normal 0.995185 -0.0980171 0
    outer loop
      vertex -12.5251 16.75 15
      vertex -12.2845 19.1935 0
      vertex -12.2845 19.1935 15
    endloop
  endfacet
  facet normal 0.995185 -0.0980171 0
    outer loop
      vertex -12.2845 19.1935 0
      vertex -12.5251 16.75 15
      vertex -12.5251 16.75 0
    endloop
  endfacet
  facet normal -0.95694 0.290285 0
    outer loop
      vertex -17.1391 20.1592 0
      vertex -16.1447 23.4373 15
      vertex -16.1447 23.4373 0
    endloop
  endfacet
  facet normal -0.95694 0.290285 0
    outer loop
      vertex -16.1447 23.4373 15
      vertex -17.1391 20.1592 0
      vertex -17.1391 20.1592 15
    endloop
  endfacet
  facet normal -1.85267e-07 5.62001e-08 1
    outer loop
      vertex -12.2845 19.1935 15
      vertex -11.5717 21.5432 15
      vertex -17.1391 20.1592 15
    endloop
  endfacet
  facet normal -1.85267e-07 5.62002e-08 1
    outer loop
      vertex -11.5717 21.5432 15
      vertex -16.1447 23.4373 15
      vertex -17.1391 20.1592 15
    endloop
  endfacet
  facet normal 0.95694 -0.290284 0
    outer loop
      vertex -12.2845 19.1935 15
      vertex -11.5717 21.5432 0
      vertex -11.5717 21.5432 15
    endloop
  endfacet
  facet normal 0.95694 -0.290284 0
    outer loop
      vertex -11.5717 21.5432 0
      vertex -12.2845 19.1935 15
      vertex -12.2845 19.1935 0
    endloop
  endfacet
  facet normal -0.881921 0.471397 0
    outer loop
      vertex -16.1447 23.4373 0
      vertex -14.5298 26.4585 15
      vertex -14.5298 26.4585 0
    endloop
  endfacet
  facet normal -0.881921 0.471397 0
    outer loop
      vertex -14.5298 26.4585 15
      vertex -16.1447 23.4373 0
      vertex -16.1447 23.4373 15
    endloop
  endfacet
  facet normal -1.70743e-07 9.12641e-08 1
    outer loop
      vertex -11.5717 21.5432 15
      vertex -10.4143 23.7086 15
      vertex -16.1447 23.4373 15
    endloop
  endfacet
  facet normal -1.70743e-07 9.12641e-08 1
    outer loop
      vertex -10.4143 23.7086 15
      vertex -14.5298 26.4585 15
      vertex -16.1447 23.4373 15
    endloop
  endfacet
  facet normal 0.881921 -0.471397 0
    outer loop
      vertex -11.5717 21.5432 15
      vertex -10.4143 23.7086 0
      vertex -10.4143 23.7086 15
    endloop
  endfacet
  facet normal 0.881921 -0.471397 0
    outer loop
      vertex -10.4143 23.7086 0
      vertex -11.5717 21.5432 15
      vertex -11.5717 21.5432 0
    endloop
  endfacet
  facet normal -0.773011 0.634393 0
    outer loop
      vertex -14.5298 26.4585 0
      vertex -12.3566 29.1066 15
      vertex -12.3566 29.1066 0
    endloop
  endfacet
  facet normal -0.773011 0.634393 0
    outer loop
      vertex -12.3566 29.1066 15
      vertex -14.5298 26.4585 0
      vertex -14.5298 26.4585 15
    endloop
  endfacet
  facet normal -1.49658e-07 1.22821e-07 1
    outer loop
      vertex -10.4143 23.7086 15
      vertex -8.8566 25.6066 15
      vertex -14.5298 26.4585 15
    endloop
  endfacet
  facet normal -1.49658e-07 1.22821e-07 1
    outer loop
      vertex -8.8566 25.6066 15
      vertex -12.3566 29.1066 15
      vertex -14.5298 26.4585 15
    endloop
  endfacet
  facet normal 0.773011 -0.634393 0
    outer loop
      vertex -10.4143 23.7086 15
      vertex -8.8566 25.6066 0
      vertex -8.8566 25.6066 15
    endloop
  endfacet
  facet normal 0.773011 -0.634393 0
    outer loop
      vertex -8.8566 25.6066 0
      vertex -10.4143 23.7086 15
      vertex -10.4143 23.7086 0
    endloop
  endfacet
  facet normal -0.634393 0.773011 0
    outer loop
      vertex -9.70852 31.2798 0
      vertex -12.3566 29.1066 15
      vertex -9.70852 31.2798 15
    endloop
  endfacet
  facet normal -0.634393 0.773011 0
    outer loop
      vertex -12.3566 29.1066 15
      vertex -9.70852 31.2798 0
      vertex -12.3566 29.1066 0
    endloop
  endfacet
  facet normal -1.22821e-07 1.49658e-07 1
    outer loop
      vertex -8.8566 25.6066 15
      vertex -6.95859 27.1643 15
      vertex -12.3566 29.1066 15
    endloop
  endfacet
  facet normal -1.22821e-07 1.49658e-07 1
    outer loop
      vertex -6.95859 27.1643 15
      vertex -9.70852 31.2798 15
      vertex -12.3566 29.1066 15
    endloop
  endfacet
  facet normal 0.634393 -0.773011 0
    outer loop
      vertex -8.8566 25.6066 0
      vertex -6.95859 27.1643 15
      vertex -8.8566 25.6066 15
    endloop
  endfacet
  facet normal 0.634393 -0.773011 0
    outer loop
      vertex -6.95859 27.1643 15
      vertex -8.8566 25.6066 0
      vertex -6.95859 27.1643 0
    endloop
  endfacet
  facet normal -0.471397 0.881921 0
    outer loop
      vertex -6.68734 32.8947 0
      vertex -9.70852 31.2798 15
      vertex -6.68734 32.8947 15
    endloop
  endfacet
  facet normal -0.471397 0.881921 0
    outer loop
      vertex -9.70852 31.2798 15
      vertex -6.68734 32.8947 0
      vertex -9.70852 31.2798 0
    endloop
  endfacet
  facet normal -9.12641e-08 1.70743e-07 1
    outer loop
      vertex -6.95859 27.1643 15
      vertex -4.79316 28.3217 15
      vertex -9.70852 31.2798 15
    endloop
  endfacet
  facet normal -9.12641e-08 1.70743e-07 1
    outer loop
      vertex -4.79316 28.3217 15
      vertex -6.68734 32.8947 15
      vertex -9.70852 31.2798 15
    endloop
  endfacet
  facet normal 0.471397 -0.881921 0
    outer loop
      vertex -6.95859 27.1643 0
      vertex -4.79316 28.3217 15
      vertex -6.95859 27.1643 15
    endloop
  endfacet
  facet normal 0.471397 -0.881921 0
    outer loop
      vertex -4.79316 28.3217 15
      vertex -6.95859 27.1643 0
      vertex -4.79316 28.3217 0
    endloop
  endfacet
  facet normal -0.290285 0.95694 0
    outer loop
      vertex -3.40918 33.8891 0
      vertex -6.68734 32.8947 15
      vertex -3.40918 33.8891 15
    endloop
  endfacet
  facet normal -0.290285 0.95694 0
    outer loop
      vertex -6.68734 32.8947 15
      vertex -3.40918 33.8891 0
      vertex -6.68734 32.8947 0
    endloop
  endfacet
  facet normal -5.62001e-08 1.85267e-07 1
    outer loop
      vertex -4.79316 28.3217 15
      vertex -2.44353 29.0345 15
      vertex -6.68734 32.8947 15
    endloop
  endfacet
  facet normal -5.62002e-08 1.85267e-07 1
    outer loop
      vertex -2.44353 29.0345 15
      vertex -3.40918 33.8891 15
      vertex -6.68734 32.8947 15
    endloop
  endfacet
  facet normal 0.290285 -0.95694 0
    outer loop
      vertex -4.79316 28.3217 0
      vertex -2.44353 29.0345 15
      vertex -4.79316 28.3217 15
    endloop
  endfacet
  facet normal 0.290285 -0.95694 0
    outer loop
      vertex -2.44353 29.0345 15
      vertex -4.79316 28.3217 0
      vertex -2.44353 29.0345 0
    endloop
  endfacet
  facet normal -0.0980168 0.995185 0
    outer loop
      vertex -3.8802e-15 34.2249 0
      vertex -3.40918 33.8891 15
      vertex -3.8802e-15 34.2249 15
    endloop
  endfacet
  facet normal -0.0980168 0.995185 0
    outer loop
      vertex -3.40918 33.8891 15
      vertex -3.8802e-15 34.2249 0
      vertex -3.40918 33.8891 0
    endloop
  endfacet
  facet normal -1.89765e-08 1.92671e-07 1
    outer loop
      vertex -2.44353 29.0345 15
      vertex -2.78114e-15 29.2751 15
      vertex -3.40918 33.8891 15
    endloop
  endfacet
  facet normal -1.89764e-08 1.92671e-07 1
    outer loop
      vertex -2.78114e-15 29.2751 15
      vertex -3.8802e-15 34.2249 15
      vertex -3.40918 33.8891 15
    endloop
  endfacet
  facet normal 0.0980174 -0.995185 0
    outer loop
      vertex -2.44353 29.0345 0
      vertex -2.78114e-15 29.2751 15
      vertex -2.44353 29.0345 15
    endloop
  endfacet
  facet normal 0.0980174 -0.995185 0
    outer loop
      vertex -2.78114e-15 29.2751 15
      vertex -2.44353 29.0345 0
      vertex -2.78114e-15 29.2751 0
    endloop
  endfacet
  facet normal 0 0 -1
    outer loop
      vertex -24.99 -18.6364 0
      vertex -19.99 -0.724874 0
      vertex -19.99 -18.6364 0
    endloop
  endfacet
  facet normal 0 0 -1
    outer loop
      vertex -24.99 6.36364 0
      vertex -19.99 -0.724874 0
      vertex -24.99 -18.6364 0
    endloop
  endfacet
  facet normal 0 0 -1
    outer loop
      vertex -19.99 -0.724874 0
      vertex -24.99 6.36364 0
      vertex -19.99 4.22487 0
    endloop
  endfacet
  facet normal 0 0 -1
    outer loop
      vertex -19.99 4.22487 0
      vertex -24.99 6.36364 0
      vertex -19.99 6.36364 0
    endloop
  endfacet
  facet normal 0 0 -1
    outer loop
      vertex -19.99 -0.724874 0
      vertex 0.00999928 -0.723889 0
      vertex 0.00999928 -0.724874 0
    endloop
  endfacet
  facet normal -0 0 -1
    outer loop
      vertex 0.00999928 -0.723889 0
      vertex -19.99 -0.724874 0
      vertex 2.78114e-15 4.22487 0
    endloop
  endfacet
  facet normal -0 0 -1
    outer loop
      vertex 2.78114e-15 4.22487 0
      vertex -19.99 -0.724874 0
      vertex -19.99 4.22487 0
    endloop
  endfacet
  facet normal 0 0 -1
    outer loop
      vertex 12.5251 16.75 0
      vertex 17.4749 16.75 0
      vertex 17.1391 13.3408 0
    endloop
  endfacet
  facet normal 0 0 -1
    outer loop
      vertex 12.2845 14.3065 0
      vertex 17.1391 13.3408 0
      vertex 16.1447 10.0627 0
    endloop
  endfacet
  facet normal 0 0 -1
    outer loop
      vertex 17.4749 16.75 0
      vertex 12.5251 16.75 0
      vertex 17.1391 20.1592 0
    endloop
  endfacet
  facet normal 0 0 -1
    outer loop
      vertex 11.5717 11.9568 0
      vertex 16.1447 10.0627 0
      vertex 14.5298 7.04148 0
    endloop
  endfacet
  facet normal 0 0 -1
    outer loop
      vertex 12.2845 19.1935 0
      vertex 17.1391 20.1592 0
      vertex 12.5251 16.75 0
    endloop
  endfacet
  facet normal -0 0 -1
    outer loop
      vertex 17.1391 20.1592 0
      vertex 12.2845 19.1935 0
      vertex 16.1447 23.4373 0
    endloop
  endfacet
  facet normal 0 0 -1
    outer loop
      vertex 10.4143 9.79141 0
      vertex 14.5298 7.04148 0
      vertex 12.3566 4.3934 0
    endloop
  endfacet
  facet normal 0 0 -1
    outer loop
      vertex 17.1391 13.3408 0
      vertex 12.2845 14.3065 0
      vertex 12.5251 16.75 0
    endloop
  endfacet
  facet normal 0 0 -1
    outer loop
      vertex 16.1447 10.0627 0
      vertex 11.5717 11.9568 0
      vertex 12.2845 14.3065 0
    endloop
  endfacet
  facet normal 0 0 -1
    outer loop
      vertex 14.5298 7.04148 0
      vertex 10.4143 9.79141 0
      vertex 11.5717 11.9568 0
    endloop
  endfacet
  facet normal 0 0 -1
    outer loop
      vertex 8.8566 7.8934 0
      vertex 12.3566 4.3934 0
      vertex 9.70852 2.22017 0
    endloop
  endfacet
  facet normal 0 0 -1
    outer loop
      vertex 12.3566 4.3934 0
      vertex 8.8566 7.8934 0
      vertex 10.4143 9.79141 0
    endloop
  endfacet
  facet normal 0 0 -1
    outer loop
      vertex 9.70852 2.22017 0
      vertex 6.95859 6.33574 0
      vertex 8.8566 7.8934 0
    endloop
  endfacet
  facet normal 0 0 -1
    outer loop
      vertex 6.68734 0.605322 0
      vertex 6.95859 6.33574 0
      vertex 9.70852 2.22017 0
    endloop
  endfacet
  facet normal 0 0 -1
    outer loop
      vertex 6.68734 0.605322 0
      vertex 4.79316 5.17829 0
      vertex 6.95859 6.33574 0
    endloop
  endfacet
  facet normal 0 0 -1
    outer loop
      vertex 3.40918 -0.389098 0
      vertex 4.79316 5.17829 0
      vertex 6.68734 0.605322 0
    endloop
  endfacet
  facet normal 0 0 -1
    outer loop
      vertex 3.40918 -0.389098 0
      vertex 2.44353 4.46554 0
      vertex 4.79316 5.17829 0
    endloop
  endfacet
  facet normal 0 0 -1
    outer loop
      vertex 0.00999928 -0.723889 0
      vertex 2.44353 4.46554 0
      vertex 3.40918 -0.389098 0
    endloop
  endfacet
  facet normal 0 0 -1
    outer loop
      vertex 2.78114e-15 4.22487 0
      vertex 2.44353 4.46554 0
      vertex 0.00999928 -0.723889 0
    endloop
  endfacet
  facet normal 0 0 -1
    outer loop
      vertex 11.5717 21.5432 0
      vertex 16.1447 23.4373 0
      vertex 12.2845 19.1935 0
    endloop
  endfacet
  facet normal -0 0 -1
    outer loop
      vertex 16.1447 23.4373 0
      vertex 11.5717 21.5432 0
      vertex 14.5298 26.4585 0
    endloop
  endfacet
  facet normal 0 0 -1
    outer loop
      vertex 10.4143 23.7086 0
      vertex 14.5298 26.4585 0
      vertex 11.5717 21.5432 0
    endloop
  endfacet
  facet normal -0 0 -1
    outer loop
      vertex 14.5298 26.4585 0
      vertex 10.4143 23.7086 0
      vertex 12.3566 29.1066 0
    endloop
  endfacet
  facet normal 0 0 -1
    outer loop
      vertex 8.8566 25.6066 0
      vertex 12.3566 29.1066 0
      vertex 10.4143 23.7086 0
    endloop
  endfacet
  facet normal -0 0 -1
    outer loop
      vertex 12.3566 29.1066 0
      vertex 8.8566 25.6066 0
      vertex 9.70852 31.2798 0
    endloop
  endfacet
  facet normal 0 0 -1
    outer loop
      vertex 6.95859 27.1643 0
      vertex 9.70852 31.2798 0
      vertex 8.8566 25.6066 0
    endloop
  endfacet
  facet normal 0 0 -1
    outer loop
      vertex 6.95859 27.1643 0
      vertex 6.68734 32.8947 0
      vertex 9.70852 31.2798 0
    endloop
  endfacet
  facet normal 0 0 -1
    outer loop
      vertex 4.79316 28.3217 0
      vertex 6.68734 32.8947 0
      vertex 6.95859 27.1643 0
    endloop
  endfacet
  facet normal 0 0 -1
    outer loop
      vertex 4.79316 28.3217 0
      vertex 3.40918 33.8891 0
      vertex 6.68734 32.8947 0
    endloop
  endfacet
  facet normal 0 0 -1
    outer loop
      vertex 2.44353 29.0345 0
      vertex 3.40918 33.8891 0
      vertex 4.79316 28.3217 0
    endloop
  endfacet
  facet normal 0 0 -1
    outer loop
      vertex -2.78114e-15 29.2751 0
      vertex 3.40918 33.8891 0
      vertex 2.44353 29.0345 0
    endloop
  endfacet
  facet normal 0 0 -1
    outer loop
      vertex -2.78114e-15 29.2751 0
      vertex -3.8802e-15 34.2249 0
      vertex 3.40918 33.8891 0
    endloop
  endfacet
  facet normal 0 0 -1
    outer loop
      vertex -2.44353 29.0345 0
      vertex -3.8802e-15 34.2249 0
      vertex -2.78114e-15 29.2751 0
    endloop
  endfacet
  facet normal 0 0 -1
    outer loop
      vertex -2.44353 29.0345 0
      vertex -3.40918 33.8891 0
      vertex -3.8802e-15 34.2249 0
    endloop
  endfacet
  facet normal 0 0 -1
    outer loop
      vertex -4.79316 28.3217 0
      vertex -3.40918 33.8891 0
      vertex -2.44353 29.0345 0
    endloop
  endfacet
  facet normal 0 0 -1
    outer loop
      vertex -4.79316 28.3217 0
      vertex -6.68734 32.8947 0
      vertex -3.40918 33.8891 0
    endloop
  endfacet
  facet normal 0 0 -1
    outer loop
      vertex -6.95859 27.1643 0
      vertex -6.68734 32.8947 0
      vertex -4.79316 28.3217 0
    endloop
  endfacet
  facet normal 0 0 -1
    outer loop
      vertex -9.70852 31.2798 0
      vertex -6.95859 27.1643 0
      vertex -8.8566 25.6066 0
    endloop
  endfacet
  facet normal 0 0 -1
    outer loop
      vertex -6.95859 27.1643 0
      vertex -9.70852 31.2798 0
      vertex -6.68734 32.8947 0
    endloop
  endfacet
  facet normal 0 0 -1
    outer loop
      vertex -12.3566 29.1066 0
      vertex -8.8566 25.6066 0
      vertex -10.4143 23.7086 0
    endloop
  endfacet
  facet normal 0 0 -1
    outer loop
      vertex -14.5298 26.4585 0
      vertex -10.4143 23.7086 0
      vertex -11.5717 21.5432 0
    endloop
  endfacet
  facet normal 0 0 -1
    outer loop
      vertex -16.1447 23.4373 0
      vertex -11.5717 21.5432 0
      vertex -12.2845 19.1935 0
    endloop
  endfacet
  facet normal 0 0 -1
    outer loop
      vertex -8.8566 25.6066 0
      vertex -12.3566 29.1066 0
      vertex -9.70852 31.2798 0
    endloop
  endfacet
  facet normal 0 0 -1
    outer loop
      vertex -17.1391 20.1592 0
      vertex -12.2845 19.1935 0
      vertex -12.5251 16.75 0
    endloop
  endfacet
  facet normal 0 0 -1
    outer loop
      vertex -10.4143 23.7086 0
      vertex -14.5298 26.4585 0
      vertex -12.3566 29.1066 0
    endloop
  endfacet
  facet normal 0 0 -1
    outer loop
      vertex -11.5717 21.5432 0
      vertex -16.1447 23.4373 0
      vertex -14.5298 26.4585 0
    endloop
  endfacet
  facet normal 0 0 -1
    outer loop
      vertex -12.2845 19.1935 0
      vertex -17.1391 20.1592 0
      vertex -16.1447 23.4373 0
    endloop
  endfacet
  facet normal 0 -0 -1
    outer loop
      vertex -17.1391 20.1592 0
      vertex -12.5251 16.75 0
      vertex -17.4749 16.75 0
    endloop
  endfacet
  facet normal 0 -1 0
    outer loop
      vertex -17.4749 16.75 0
      vertex -12.5251 16.75 15
      vertex -17.4749 16.75 15
    endloop
  endfacet
  facet normal 0 -1 -0
    outer loop
      vertex -12.5251 16.75 15
      vertex -17.4749 16.75 0
      vertex -12.5251 16.75 0
    endloop
  endfacet
  facet normal -1 -2.22045e-16 -1.38965e-20
    outer loop
      vertex 2.78114e-15 4.22487 15
      vertex 2.78169e-15 4.2224 15
      vertex 3.87965e-15 -0.722399 15
    endloop
  endfacet
  facet normal 1 -0 0
    outer loop
      vertex -19.99 -13.1913 9.30014
      vertex -19.99 -11.8344 4.61777
      vertex -19.99 -11.8344 10.3822
    endloop
  endfacet
  facet normal 1 0 0
    outer loop
      vertex -19.99 -13.1913 9.30014
      vertex -19.99 -13.1913 5.69984
      vertex -19.99 -11.8344 4.61777
    endloop
  endfacet
  facet normal 1 0 0
    outer loop
      vertex -19.99 -14.8833 9.68633
      vertex -19.99 -13.1913 5.69984
      vertex -19.99 -13.1913 9.30014
    endloop
  endfacet
  facet normal 1 0 0
    outer loop
      vertex -19.99 -14.8833 9.68633
      vertex -19.99 -14.8833 5.31366
      vertex -19.99 -13.1913 5.69984
    endloop
  endfacet
  facet normal 1 0 0
    outer loop
      vertex -19.99 -15.6364 11.25
      vertex -19.99 -14.8833 5.31366
      vertex -19.99 -14.8833 9.68633
    endloop
  endfacet
  facet normal 1 0 0
    outer loop
      vertex -19.99 -14.8833 5.31366
      vertex -19.99 -15.6364 11.25
      vertex -19.99 -15.6364 3.75
    endloop
  endfacet
  facet normal 1 -0 0
    outer loop
      vertex -19.99 -3.19131 9.30014
      vertex -19.99 -1.83442 4.61777
      vertex -19.99 -1.83442 10.3822
    endloop
  endfacet
  facet normal 1 0 0
    outer loop
      vertex -19.99 -3.19131 9.30014
      vertex -19.99 -3.19131 5.69984
      vertex -19.99 -1.83442 4.61777
    endloop
  endfacet
  facet normal 1 0 0
    outer loop
      vertex -19.99 -4.88334 9.68633
      vertex -19.99 -3.19131 5.69984
      vertex -19.99 -3.19131 9.30014
    endloop
  endfacet
  facet normal 1 0 0
    outer loop
      vertex -19.99 -4.88334 9.68633
      vertex -19.99 -4.88334 5.31366
      vertex -19.99 -3.19131 5.69984
    endloop
  endfacet
  facet normal 1 -0 0
    outer loop
      vertex -19.99 -11.8344 10.3822
      vertex -19.99 -4.88334 9.68633
      vertex -19.99 -5.63636 11.25
    endloop
  endfacet
  facet normal 1 0 0
    outer loop
      vertex -19.99 -4.88334 9.68633
      vertex -19.99 -11.8344 10.3822
      vertex -19.99 -4.88334 5.31366
    endloop
  endfacet
  facet normal 1 0 0
    outer loop
      vertex -19.99 -1.83442 10.3822
      vertex -19.99 -0.724874 15
      vertex -19.99 -1.83442 12.1178
    endloop
  endfacet
  facet normal 1 0 0
    outer loop
      vertex -19.99 -0.724874 15
      vertex -19.99 -3.19131 13.1998
      vertex -19.99 -1.83442 12.1178
    endloop
  endfacet
  facet normal 1 0 0
    outer loop
      vertex -19.99 -0.724874 15
      vertex -19.99 -4.88334 12.8137
      vertex -19.99 -3.19131 13.1998
    endloop
  endfacet
  facet normal 1 0 0
    outer loop
      vertex -19.99 -11.8344 10.3822
      vertex -19.99 -5.63636 11.25
      vertex -19.99 -11.8344 12.1178
    endloop
  endfacet
  facet normal 1 0 0
    outer loop
      vertex -19.99 -4.88334 12.8137
      vertex -19.99 -11.8344 12.1178
      vertex -19.99 -5.63636 11.25
    endloop
  endfacet
  facet normal 1 -0 0
    outer loop
      vertex -19.99 -13.1913 13.1998
      vertex -19.99 -4.88334 12.8137
      vertex -19.99 -0.724874 15
    endloop
  endfacet
  facet normal 1 0 0
    outer loop
      vertex -19.99 -4.88334 12.8137
      vertex -19.99 -13.1913 13.1998
      vertex -19.99 -11.8344 12.1178
    endloop
  endfacet
  facet normal 1 0 0
    outer loop
      vertex -19.99 -15.6364 11.25
      vertex -19.99 -18.6364 15
      vertex -19.99 -15.6364 3.75
    endloop
  endfacet
  facet normal 1 0 0
    outer loop
      vertex -19.99 -14.8833 12.8137
      vertex -19.99 -18.6364 15
      vertex -19.99 -15.6364 11.25
    endloop
  endfacet
  facet normal 1 0 0
    outer loop
      vertex -19.99 -13.1913 13.1998
      vertex -19.99 -18.6364 15
      vertex -19.99 -14.8833 12.8137
    endloop
  endfacet
  facet normal 1 -0 0
    outer loop
      vertex -19.99 -18.6364 15
      vertex -19.99 -13.1913 13.1998
      vertex -19.99 -0.724874 15
    endloop
  endfacet
  facet normal 1 0 0
    outer loop
      vertex -19.99 -0.724874 15
      vertex -19.99 -1.83442 10.3822
      vertex -19.99 -0.724874 0
    endloop
  endfacet
  facet normal 1 -0 0
    outer loop
      vertex -19.99 -1.83442 4.61777
      vertex -19.99 -0.724874 0
      vertex -19.99 -1.83442 10.3822
    endloop
  endfacet
  facet normal 1 -0 0
    outer loop
      vertex -19.99 -1.83442 2.88222
      vertex -19.99 -0.724874 0
      vertex -19.99 -1.83442 4.61777
    endloop
  endfacet
  facet normal 1 -0 0
    outer loop
      vertex -19.99 -3.19131 1.80014
      vertex -19.99 -0.724874 0
      vertex -19.99 -1.83442 2.88222
    endloop
  endfacet
  facet normal 1 0 0
    outer loop
      vertex -19.99 -4.88334 2.18633
      vertex -19.99 -0.724874 0
      vertex -19.99 -3.19131 1.80014
    endloop
  endfacet
  facet normal 1 0 0
    outer loop
      vertex -19.99 -11.8344 4.61777
      vertex -19.99 -4.88334 5.31366
      vertex -19.99 -11.8344 10.3822
    endloop
  endfacet
  facet normal 1 0 0
    outer loop
      vertex -19.99 -4.88334 5.31366
      vertex -19.99 -11.8344 4.61777
      vertex -19.99 -5.63636 3.75
    endloop
  endfacet
  facet normal 1 0 0
    outer loop
      vertex -19.99 -11.8344 2.88222
      vertex -19.99 -5.63636 3.75
      vertex -19.99 -11.8344 4.61777
    endloop
  endfacet
  facet normal 1 0 0
    outer loop
      vertex -19.99 -5.63636 3.75
      vertex -19.99 -11.8344 2.88222
      vertex -19.99 -4.88334 2.18633
    endloop
  endfacet
  facet normal 1 0 0
    outer loop
      vertex -19.99 -13.1913 1.80014
      vertex -19.99 -4.88334 2.18633
      vertex -19.99 -11.8344 2.88222
    endloop
  endfacet
  facet normal 1 0 0
    outer loop
      vertex -19.99 -4.88334 2.18633
      vertex -19.99 -13.1913 1.80014
      vertex -19.99 -0.724874 0
    endloop
  endfacet
  facet normal 1 0 0
    outer loop
      vertex -19.99 -13.1913 1.80014
      vertex -19.99 -18.6364 0
      vertex -19.99 -0.724874 0
    endloop
  endfacet
  facet normal 1 0 0
    outer loop
      vertex -19.99 -14.8833 2.18633
      vertex -19.99 -18.6364 0
      vertex -19.99 -13.1913 1.80014
    endloop
  endfacet
  facet normal 1 0 0
    outer loop
      vertex -19.99 -15.6364 3.75
      vertex -19.99 -18.6364 0
      vertex -19.99 -14.8833 2.18633
    endloop
  endfacet
  facet normal 1 0 0
    outer loop
      vertex -19.99 -18.6364 0
      vertex -19.99 -15.6364 3.75
      vertex -19.99 -18.6364 15
    endloop
  endfacet
  facet normal 1 0 0
    outer loop
      vertex -19.99 6.36364 15
      vertex -19.99 4.22487 15
      vertex -19.99 6.36364 0
    endloop
  endfacet
  facet normal 1 0 -0
    outer loop
      vertex -19.99 4.22487 15
      vertex -19.99 6.36364 15
      vertex -19.99 -0.724874 15
    endloop
  endfacet
  facet normal 1 0 0
    outer loop
      vertex -19.99 6.36364 0
      vertex -19.99 4.22487 15
      vertex -19.99 4.22487 0
    endloop
  endfacet
  facet normal 0 -1 0
    outer loop
      vertex -19.99 -0.724874 0
      vertex 0.00999928 -0.724874 15
      vertex -19.99 -0.724874 15
    endloop
  endfacet
  facet normal 0 -1 -0
    outer loop
      vertex 0.00999928 -0.724874 15
      vertex -19.99 -0.724874 0
      vertex 0.00999928 -0.724874 0
    endloop
  endfacet
  facet normal 0 1 -0
    outer loop
      vertex 2.78114e-15 4.22487 0
      vertex -19.99 4.22487 15
      vertex 2.78114e-15 4.22487 15
    endloop
  endfacet
  facet normal 0 1 0
    outer loop
      vertex -19.99 4.22487 15
      vertex 2.78114e-15 4.22487 0
      vertex -19.99 4.22487 0
    endloop
  endfacet
  facet normal 1 -0 0
    outer loop
      vertex 0.00999928 -0.724874 15
      vertex 0.00999928 -0.723889 0
      vertex 0.00999928 -0.723889 15
    endloop
  endfacet
  facet normal 1 0 0
    outer loop
      vertex 0.00999928 -0.723889 0
      vertex 0.00999928 -0.724874 15
      vertex 0.00999928 -0.724874 0
    endloop
  endfacet
  facet normal 0 0 1
    outer loop
      vertex 3.87965e-15 -0.722399 15
      vertex 0.00999928 -0.724874 15
      vertex 0.00999928 -0.723889 15
    endloop
  endfacet
  facet normal 4.76837e-08 1.92674e-07 1
    outer loop
      vertex 3.87965e-15 -0.722399 15
      vertex -19.99 -0.724874 15
      vertex 0.00999928 -0.724874 15
    endloop
  endfacet
  facet normal 4.77076e-08 0 1
    outer loop
      vertex -19.99 -0.724874 15
      vertex 3.87965e-15 -0.722399 15
      vertex 2.78169e-15 4.2224 15
    endloop
  endfacet
  facet normal -0 0 1
    outer loop
      vertex -19.99 4.22487 15
      vertex 2.78169e-15 4.2224 15
      vertex 2.78114e-15 4.22487 15
    endloop
  endfacet
  facet normal 2.38529e-11 1.92671e-07 1
    outer loop
      vertex 2.78169e-15 4.2224 15
      vertex -19.99 4.22487 15
      vertex -19.99 -0.724874 15
    endloop
  endfacet
  facet normal -1 0 0
    outer loop
      vertex -24.99 -13.1913 5.69984
      vertex -24.99 -11.8344 10.3822
      vertex -24.99 -11.8344 4.61777
    endloop
  endfacet
  facet normal -1 0 0
    outer loop
      vertex -24.99 -13.1913 5.69984
      vertex -24.99 -13.1913 9.30014
      vertex -24.99 -11.8344 10.3822
    endloop
  endfacet
  facet normal -1 0 0
    outer loop
      vertex -24.99 -14.8833 5.31366
      vertex -24.99 -13.1913 9.30014
      vertex -24.99 -13.1913 5.69984
    endloop
  endfacet
  facet normal -1 0 0
    outer loop
      vertex -24.99 -14.8833 5.31366
      vertex -24.99 -14.8833 9.68633
      vertex -24.99 -13.1913 9.30014
    endloop
  endfacet
  facet normal -1 0 0
    outer loop
      vertex -24.99 -15.6364 3.75
      vertex -24.99 -14.8833 9.68633
      vertex -24.99 -14.8833 5.31366
    endloop
  endfacet
  facet normal -1 -0 0
    outer loop
      vertex -24.99 -14.8833 9.68633
      vertex -24.99 -15.6364 3.75
      vertex -24.99 -15.6364 11.25
    endloop
  endfacet
  facet normal -1 0 0
    outer loop
      vertex -24.99 -3.19131 5.69984
      vertex -24.99 -1.83442 10.3822
      vertex -24.99 -1.83442 4.61777
    endloop
  endfacet
  facet normal -1 0 0
    outer loop
      vertex -24.99 -3.19131 5.69984
      vertex -24.99 -3.19131 9.30014
      vertex -24.99 -1.83442 10.3822
    endloop
  endfacet
  facet normal -1 0 0
    outer loop
      vertex -24.99 -4.88334 5.31366
      vertex -24.99 -3.19131 9.30014
      vertex -24.99 -3.19131 5.69984
    endloop
  endfacet
  facet normal -1 0 0
    outer loop
      vertex -24.99 -4.88334 5.31366
      vertex -24.99 -4.88334 9.68633
      vertex -24.99 -3.19131 9.30014
    endloop
  endfacet
  facet normal -1 0 0
    outer loop
      vertex -24.99 -11.8344 4.61777
      vertex -24.99 -4.88334 5.31366
      vertex -24.99 -5.63636 3.75
    endloop
  endfacet
  facet normal -1 -0 0
    outer loop
      vertex -24.99 -4.88334 5.31366
      vertex -24.99 -11.8344 4.61777
      vertex -24.99 -4.88334 9.68633
    endloop
  endfacet
  facet normal -1 0 0
    outer loop
      vertex -24.99 -1.83442 4.61777
      vertex -24.99 6.36364 0
      vertex -24.99 -1.83442 2.88222
    endloop
  endfacet
  facet normal -1 0 0
    outer loop
      vertex -24.99 6.36364 0
      vertex -24.99 -3.19131 1.80014
      vertex -24.99 -1.83442 2.88222
    endloop
  endfacet
  facet normal -1 0 0
    outer loop
      vertex -24.99 -11.8344 4.61777
      vertex -24.99 -5.63636 3.75
      vertex -24.99 -11.8344 2.88222
    endloop
  endfacet
  facet normal -1 0 0
    outer loop
      vertex -24.99 -4.88334 2.18633
      vertex -24.99 -11.8344 2.88222
      vertex -24.99 -5.63636 3.75
    endloop
  endfacet
  facet normal -1 0 0
    outer loop
      vertex -24.99 -13.1913 1.80014
      vertex -24.99 -4.88334 2.18633
      vertex -24.99 -3.19131 1.80014
    endloop
  endfacet
  facet normal -1 0 0
    outer loop
      vertex -24.99 -18.6364 0
      vertex -24.99 -3.19131 1.80014
      vertex -24.99 6.36364 0
    endloop
  endfacet
  facet normal -1 -0 0
    outer loop
      vertex -24.99 -4.88334 2.18633
      vertex -24.99 -13.1913 1.80014
      vertex -24.99 -11.8344 2.88222
    endloop
  endfacet
  facet normal -1 -0 0
    outer loop
      vertex -24.99 -15.6364 3.75
      vertex -24.99 -18.6364 0
      vertex -24.99 -15.6364 11.25
    endloop
  endfacet
  facet normal -1 -0 0
    outer loop
      vertex -24.99 -14.8833 2.18633
      vertex -24.99 -18.6364 0
      vertex -24.99 -15.6364 3.75
    endloop
  endfacet
  facet normal -1 -0 0
    outer loop
      vertex -24.99 -13.1913 1.80014
      vertex -24.99 -18.6364 0
      vertex -24.99 -14.8833 2.18633
    endloop
  endfacet
  facet normal -1 -0 0
    outer loop
      vertex -24.99 -3.19131 1.80014
      vertex -24.99 -18.6364 0
      vertex -24.99 -13.1913 1.80014
    endloop
  endfacet
  facet normal -1 0 0
    outer loop
      vertex -24.99 6.36364 0
      vertex -24.99 -1.83442 4.61777
      vertex -24.99 6.36364 15
    endloop
  endfacet
  facet normal -1 0 0
    outer loop
      vertex -24.99 -1.83442 10.3822
      vertex -24.99 6.36364 15
      vertex -24.99 -1.83442 4.61777
    endloop
  endfacet
  facet normal -1 0 0
    outer loop
      vertex -24.99 -1.83442 12.1178
      vertex -24.99 6.36364 15
      vertex -24.99 -1.83442 10.3822
    endloop
  endfacet
  facet normal -1 0 0
    outer loop
      vertex -24.99 -3.19131 13.1998
      vertex -24.99 6.36364 15
      vertex -24.99 -1.83442 12.1178
    endloop
  endfacet
  facet normal -1 0 0
    outer loop
      vertex -24.99 -11.8344 10.3822
      vertex -24.99 -4.88334 9.68633
      vertex -24.99 -11.8344 4.61777
    endloop
  endfacet
  facet normal -1 0 0
    outer loop
      vertex -24.99 -4.88334 9.68633
      vertex -24.99 -11.8344 10.3822
      vertex -24.99 -5.63636 11.25
    endloop
  endfacet
  facet normal -1 0 0
    outer loop
      vertex -24.99 -11.8344 12.1178
      vertex -24.99 -5.63636 11.25
      vertex -24.99 -11.8344 10.3822
    endloop
  endfacet
  facet normal -1 0 0
    outer loop
      vertex -24.99 -5.63636 11.25
      vertex -24.99 -11.8344 12.1178
      vertex -24.99 -4.88334 12.8137
    endloop
  endfacet
  facet normal -1 0 0
    outer loop
      vertex -24.99 -13.1913 13.1998
      vertex -24.99 -4.88334 12.8137
      vertex -24.99 -11.8344 12.1178
    endloop
  endfacet
  facet normal -1 0 0
    outer loop
      vertex -24.99 -4.88334 12.8137
      vertex -24.99 -13.1913 13.1998
      vertex -24.99 -3.19131 13.1998
    endloop
  endfacet
  facet normal -1 0 0
    outer loop
      vertex -24.99 -18.6364 15
      vertex -24.99 -3.19131 13.1998
      vertex -24.99 -13.1913 13.1998
    endloop
  endfacet
  facet normal -1 0 0
    outer loop
      vertex -24.99 -3.19131 13.1998
      vertex -24.99 -18.6364 15
      vertex -24.99 6.36364 15
    endloop
  endfacet
  facet normal -1 0 0
    outer loop
      vertex -24.99 -14.8833 12.8137
      vertex -24.99 -18.6364 15
      vertex -24.99 -13.1913 13.1998
    endloop
  endfacet
  facet normal -1 0 0
    outer loop
      vertex -24.99 -15.6364 11.25
      vertex -24.99 -18.6364 15
      vertex -24.99 -14.8833 12.8137
    endloop
  endfacet
  facet normal -1 0 0
    outer loop
      vertex -24.99 -18.6364 15
      vertex -24.99 -15.6364 11.25
      vertex -24.99 -18.6364 0
    endloop
  endfacet
  facet normal -0 0 1
    outer loop
      vertex -24.99 6.36364 15
      vertex -19.99 -0.724874 15
      vertex -19.99 6.36364 15
    endloop
  endfacet
  facet normal 0 0 1
    outer loop
      vertex -24.99 -18.6364 15
      vertex -19.99 -0.724874 15
      vertex -24.99 6.36364 15
    endloop
  endfacet
  facet normal 0 0 1
    outer loop
      vertex -19.99 -0.724874 15
      vertex -24.99 -18.6364 15
      vertex -19.99 -18.6364 15
    endloop
  endfacet
  facet normal 0 1 -0
    outer loop
      vertex -19.99 6.36364 0
      vertex -24.99 6.36364 15
      vertex -19.99 6.36364 15
    endloop
  endfacet
  facet normal 0 1 0
    outer loop
      vertex -24.99 6.36364 15
      vertex -19.99 6.36364 0
      vertex -24.99 6.36364 0
    endloop
  endfacet
  facet normal 0 -1 0
    outer loop
      vertex -24.99 -18.6364 0
      vertex -19.99 -18.6364 15
      vertex -24.99 -18.6364 15
    endloop
  endfacet
  facet normal 0 -1 -0
    outer loop
      vertex -19.99 -18.6364 15
      vertex -24.99 -18.6364 0
      vertex -19.99 -18.6364 0
    endloop
  endfacet
  facet normal 0 -1 0
    outer loop
      vertex -24.99 -11.8344 10.3822
      vertex -19.99 -11.8344 12.1178
      vertex -24.99 -11.8344 12.1178
    endloop
  endfacet
  facet normal 0 -1 -0
    outer loop
      vertex -19.99 -11.8344 12.1178
      vertex -24.99 -11.8344 10.3822
      vertex -19.99 -11.8344 10.3822
    endloop
  endfacet
  facet normal 0 -0.623488 -0.781833
    outer loop
      vertex -24.99 -13.1913 13.1998
      vertex -19.99 -11.8344 12.1178
      vertex -19.99 -13.1913 13.1998
    endloop
  endfacet
  facet normal -0 -0.623488 -0.781833
    outer loop
      vertex -19.99 -11.8344 12.1178
      vertex -24.99 -13.1913 13.1998
      vertex -24.99 -11.8344 12.1178
    endloop
  endfacet
  facet normal 0 0.222515 -0.974929
    outer loop
      vertex -24.99 -14.8833 12.8137
      vertex -19.99 -13.1913 13.1998
      vertex -19.99 -14.8833 12.8137
    endloop
  endfacet
  facet normal 0 0.222515 -0.974929
    outer loop
      vertex -19.99 -13.1913 13.1998
      vertex -24.99 -14.8833 12.8137
      vertex -24.99 -13.1913 13.1998
    endloop
  endfacet
  facet normal 0 0.900968 -0.433885
    outer loop
      vertex -19.99 -15.6364 11.25
      vertex -24.99 -14.8833 12.8137
      vertex -19.99 -14.8833 12.8137
    endloop
  endfacet
  facet normal 0 0.900968 -0.433885
    outer loop
      vertex -24.99 -14.8833 12.8137
      vertex -19.99 -15.6364 11.25
      vertex -24.99 -15.6364 11.25
    endloop
  endfacet
  facet normal 0 0.90097 0.433881
    outer loop
      vertex -19.99 -14.8833 9.68633
      vertex -24.99 -15.6364 11.25
      vertex -19.99 -15.6364 11.25
    endloop
  endfacet
  facet normal 0 0.90097 0.433881
    outer loop
      vertex -24.99 -15.6364 11.25
      vertex -19.99 -14.8833 9.68633
      vertex -24.99 -14.8833 9.68633
    endloop
  endfacet
  facet normal -0 0.222515 0.974929
    outer loop
      vertex -24.99 -13.1913 9.30014
      vertex -19.99 -14.8833 9.68633
      vertex -19.99 -13.1913 9.30014
    endloop
  endfacet
  facet normal 0 0.222515 0.974929
    outer loop
      vertex -19.99 -14.8833 9.68633
      vertex -24.99 -13.1913 9.30014
      vertex -24.99 -14.8833 9.68633
    endloop
  endfacet
  facet normal 0 -0.623488 0.781833
    outer loop
      vertex -24.99 -11.8344 10.3822
      vertex -19.99 -13.1913 9.30014
      vertex -19.99 -11.8344 10.3822
    endloop
  endfacet
  facet normal 0 -0.623488 0.781833
    outer loop
      vertex -19.99 -13.1913 9.30014
      vertex -24.99 -11.8344 10.3822
      vertex -24.99 -13.1913 9.30014
    endloop
  endfacet
  facet normal 0 -1 0
    outer loop
      vertex -24.99 -1.83442 10.3822
      vertex -19.99 -1.83442 12.1178
      vertex -24.99 -1.83442 12.1178
    endloop
  endfacet
  facet normal 0 -1 -0
    outer loop
      vertex -19.99 -1.83442 12.1178
      vertex -24.99 -1.83442 10.3822
      vertex -19.99 -1.83442 10.3822
    endloop
  endfacet
  facet normal 0 -0.623488 -0.781833
    outer loop
      vertex -24.99 -3.19131 13.1998
      vertex -19.99 -1.83442 12.1178
      vertex -19.99 -3.19131 13.1998
    endloop
  endfacet
  facet normal -0 -0.623488 -0.781833
    outer loop
      vertex -19.99 -1.83442 12.1178
      vertex -24.99 -3.19131 13.1998
      vertex -24.99 -1.83442 12.1178
    endloop
  endfacet
  facet normal 0 0.222515 -0.974929
    outer loop
      vertex -24.99 -4.88334 12.8137
      vertex -19.99 -3.19131 13.1998
      vertex -19.99 -4.88334 12.8137
    endloop
  endfacet
  facet normal 0 0.222515 -0.974929
    outer loop
      vertex -19.99 -3.19131 13.1998
      vertex -24.99 -4.88334 12.8137
      vertex -24.99 -3.19131 13.1998
    endloop
  endfacet
  facet normal 0 0.900968 -0.433885
    outer loop
      vertex -19.99 -5.63636 11.25
      vertex -24.99 -4.88334 12.8137
      vertex -19.99 -4.88334 12.8137
    endloop
  endfacet
  facet normal 0 0.900968 -0.433885
    outer loop
      vertex -24.99 -4.88334 12.8137
      vertex -19.99 -5.63636 11.25
      vertex -24.99 -5.63636 11.25
    endloop
  endfacet
  facet normal 0 0.90097 0.433881
    outer loop
      vertex -19.99 -4.88334 9.68633
      vertex -24.99 -5.63636 11.25
      vertex -19.99 -5.63636 11.25
    endloop
  endfacet
  facet normal 0 0.90097 0.433881
    outer loop
      vertex -24.99 -5.63636 11.25
      vertex -19.99 -4.88334 9.68633
      vertex -24.99 -4.88334 9.68633
    endloop
  endfacet
  facet normal -0 0.222515 0.974929
    outer loop
      vertex -24.99 -3.19131 9.30014
      vertex -19.99 -4.88334 9.68633
      vertex -19.99 -3.19131 9.30014
    endloop
  endfacet
  facet normal 0 0.222515 0.974929
    outer loop
      vertex -19.99 -4.88334 9.68633
      vertex -24.99 -3.19131 9.30014
      vertex -24.99 -4.88334 9.68633
    endloop
  endfacet
  facet normal 0 -0.623488 0.781833
    outer loop
      vertex -24.99 -1.83442 10.3822
      vertex -19.99 -3.19131 9.30014
      vertex -19.99 -1.83442 10.3822
    endloop
  endfacet
  facet normal 0 -0.623488 0.781833
    outer loop
      vertex -19.99 -3.19131 9.30014
      vertex -24.99 -1.83442 10.3822
      vertex -24.99 -3.19131 9.30014
    endloop
  endfacet
  facet normal 0 -1 0
    outer loop
      vertex -24.99 -11.8344 2.88222
      vertex -19.99 -11.8344 4.61777
      vertex -24.99 -11.8344 4.61777
    endloop
  endfacet
  facet normal 0 -1 -0
    outer loop
      vertex -19.99 -11.8344 4.61777
      vertex -24.99 -11.8344 2.88222
      vertex -19.99 -11.8344 2.88222
    endloop
  endfacet
  facet normal 0 -0.623488 -0.781833
    outer loop
      vertex -24.99 -13.1913 5.69984
      vertex -19.99 -11.8344 4.61777
      vertex -19.99 -13.1913 5.69984
    endloop
  endfacet
  facet normal -0 -0.623488 -0.781833
    outer loop
      vertex -19.99 -11.8344 4.61777
      vertex -24.99 -13.1913 5.69984
      vertex -24.99 -11.8344 4.61777
    endloop
  endfacet
  facet normal 0 0.222515 -0.974929
    outer loop
      vertex -24.99 -14.8833 5.31366
      vertex -19.99 -13.1913 5.69984
      vertex -19.99 -14.8833 5.31366
    endloop
  endfacet
  facet normal 0 0.222515 -0.974929
    outer loop
      vertex -19.99 -13.1913 5.69984
      vertex -24.99 -14.8833 5.31366
      vertex -24.99 -13.1913 5.69984
    endloop
  endfacet
  facet normal 0 0.900968 -0.433885
    outer loop
      vertex -19.99 -15.6364 3.75
      vertex -24.99 -14.8833 5.31366
      vertex -19.99 -14.8833 5.31366
    endloop
  endfacet
  facet normal 0 0.900968 -0.433885
    outer loop
      vertex -24.99 -14.8833 5.31366
      vertex -19.99 -15.6364 3.75
      vertex -24.99 -15.6364 3.75
    endloop
  endfacet
  facet normal 0 0.90097 0.433881
    outer loop
      vertex -19.99 -14.8833 2.18633
      vertex -24.99 -15.6364 3.75
      vertex -19.99 -15.6364 3.75
    endloop
  endfacet
  facet normal 0 0.90097 0.433881
    outer loop
      vertex -24.99 -15.6364 3.75
      vertex -19.99 -14.8833 2.18633
      vertex -24.99 -14.8833 2.18633
    endloop
  endfacet
  facet normal -0 0.222515 0.974929
    outer loop
      vertex -24.99 -13.1913 1.80014
      vertex -19.99 -14.8833 2.18633
      vertex -19.99 -13.1913 1.80014
    endloop
  endfacet
  facet normal 0 0.222515 0.974929
    outer loop
      vertex -19.99 -14.8833 2.18633
      vertex -24.99 -13.1913 1.80014
      vertex -24.99 -14.8833 2.18633
    endloop
  endfacet
  facet normal 0 -0.623488 0.781833
    outer loop
      vertex -24.99 -11.8344 2.88222
      vertex -19.99 -13.1913 1.80014
      vertex -19.99 -11.8344 2.88222
    endloop
  endfacet
  facet normal 0 -0.623488 0.781833
    outer loop
      vertex -19.99 -13.1913 1.80014
      vertex -24.99 -11.8344 2.88222
      vertex -24.99 -13.1913 1.80014
    endloop
  endfacet
  facet normal 0 -1 0
    outer loop
      vertex -24.99 -1.83442 2.88222
      vertex -19.99 -1.83442 4.61777
      vertex -24.99 -1.83442 4.61777
    endloop
  endfacet
  facet normal 0 -1 -0
    outer loop
      vertex -19.99 -1.83442 4.61777
      vertex -24.99 -1.83442 2.88222
      vertex -19.99 -1.83442 2.88222
    endloop
  endfacet
  facet normal 0 -0.623488 -0.781833
    outer loop
      vertex -24.99 -3.19131 5.69984
      vertex -19.99 -1.83442 4.61777
      vertex -19.99 -3.19131 5.69984
    endloop
  endfacet
  facet normal -0 -0.623488 -0.781833
    outer loop
      vertex -19.99 -1.83442 4.61777
      vertex -24.99 -3.19131 5.69984
      vertex -24.99 -1.83442 4.61777
    endloop
  endfacet
  facet normal 0 0.222515 -0.974929
    outer loop
      vertex -24.99 -4.88334 5.31366
      vertex -19.99 -3.19131 5.69984
      vertex -19.99 -4.88334 5.31366
    endloop
  endfacet
  facet normal 0 0.222515 -0.974929
    outer loop
      vertex -19.99 -3.19131 5.69984
      vertex -24.99 -4.88334 5.31366
      vertex -24.99 -3.19131 5.69984
    endloop
  endfacet
  facet normal 0 0.900968 -0.433885
    outer loop
      vertex -19.99 -5.63636 3.75
      vertex -24.99 -4.88334 5.31366
      vertex -19.99 -4.88334 5.31366
    endloop
  endfacet
  facet normal 0 0.900968 -0.433885
    outer loop
      vertex -24.99 -4.88334 5.31366
      vertex -19.99 -5.63636 3.75
      vertex -24.99 -5.63636 3.75
    endloop
  endfacet
  facet normal 0 0.90097 0.433881
    outer loop
      vertex -19.99 -4.88334 2.18633
      vertex -24.99 -5.63636 3.75
      vertex -19.99 -5.63636 3.75
    endloop
  endfacet
  facet normal 0 0.90097 0.433881
    outer loop
      vertex -24.99 -5.63636 3.75
      vertex -19.99 -4.88334 2.18633
      vertex -24.99 -4.88334 2.18633
    endloop
  endfacet
  facet normal -0 0.222515 0.974929
    outer loop
      vertex -24.99 -3.19131 1.80014
      vertex -19.99 -4.88334 2.18633
      vertex -19.99 -3.19131 1.80014
    endloop
  endfacet
  facet normal 0 0.222515 0.974929
    outer loop
      vertex -19.99 -4.88334 2.18633
      vertex -24.99 -3.19131 1.80014
      vertex -24.99 -4.88334 2.18633
    endloop
  endfacet
  facet normal 0 -0.623488 0.781833
    outer loop
      vertex -24.99 -1.83442 2.88222
      vertex -19.99 -3.19131 1.80014
      vertex -19.99 -1.83442 2.88222
    endloop
  endfacet
  facet normal 0 -0.623488 0.781833
    outer loop
      vertex -19.99 -3.19131 1.80014
      vertex -24.99 -1.83442 2.88222
      vertex -24.99 -3.19131 1.80014
    endloop
  endfacet
endsolid OpenSCAD_Model
